<?xml version="1.0" standalone="no"?>
<!DOCTYPE svg PUBLIC "-//W3C//DTD SVG 20010904//EN"
 "http://www.w3.org/TR/2001/REC-SVG-20010904/DTD/svg10.dtd">
<svg version="1.0" xmlns="http://www.w3.org/2000/svg"
 width="212.000000pt" height="102.000000pt" viewBox="0 0 212.000000 102.000000"
 preserveAspectRatio="xMidYMid meet">

<g transform="translate(0.000000,102.000000) scale(0.100000,-0.100000)"
fill="#000000" stroke="none">
<path d="M552 578 c-2 -73 -5 -91 -22 -108 -11 -11 -26 -20 -33 -20 -24 0 -45
33 -50 75 -4 40 -4 40 -5 -7 -2 -41 2 -50 23 -64 30 -20 70 -12 85 16 6 12 9
58 7 108 l-3 87 -2 -87z"/>
<path d="M1460 575 c-23 -24 -37 -32 -45 -25 -7 6 -16 5 -23 -2 -9 -9 -7 -17
10 -35 l22 -23 33 31 32 32 44 -40 c51 -47 85 -62 98 -42 6 10 0 18 -19 28
-37 19 -71 51 -88 84 -8 15 -18 27 -22 27 -5 0 -23 -16 -42 -35z"/>
<path d="M592 588 c-29 -29 -2 -108 37 -108 9 0 11 -8 8 -22 l-6 -23 20 24
c21 26 26 90 9 122 -12 21 -50 25 -68 7z m57 -12 c7 -8 11 -32 9 -53 -2 -32
-6 -37 -23 -35 -11 2 -26 11 -32 20 -14 17 -17 64 -6 75 11 12 40 8 52 -7z"/>
<path d="M731 591 c-10 -7 -4 -9 20 -8 33 2 34 1 34 -38 0 -32 -5 -42 -25 -52
l-25 -13 26 0 c28 0 39 19 39 71 0 42 -34 62 -69 40z"/>
<path d="M926 592 c-2 -4 10 -6 28 -4 44 5 88 -32 90 -76 0 -18 6 -32 12 -32
21 0 -6 79 -34 100 -24 20 -86 27 -96 12z"/>
<path d="M1220 546 c0 -34 -5 -56 -12 -59 -8 -3 -6 -6 5 -6 14 -1 17 8 17 59
0 33 -2 60 -5 60 -3 0 -5 -24 -5 -54z"/>
<path d="M1650 475 c0 -8 7 -15 15 -15 8 0 15 7 15 15 0 8 -7 15 -15 15 -8 0
-15 -7 -15 -15z"/>
</g>
</svg>
