<svg width="190" height="53" viewBox="0 0 190 53" fill="none" xmlns="http://www.w3.org/2000/svg">
<g clip-path="url(#clip0_2938_5350)">
<path d="M42.3185 36.0564H42.0546C40.2074 36.0564 38.792 36.8241 37.4006 37.9036C37.1847 36.6562 37.1127 35.4327 37.1127 34.3531C37.1127 33.1296 37.2087 32.0981 37.2566 31.4264C37.7844 31.7622 37.9284 32.4339 37.9284 33.0337C37.9284 33.5375 37.8084 33.9693 37.7604 34.1612C38.3122 33.4895 38.4801 32.8178 38.4801 32.218C38.4801 31.5463 38.2642 30.9945 38.1443 30.7786C39.0079 31.4743 39.1519 32.362 39.1519 33.0337C39.1519 33.1776 39.1519 33.3456 39.1279 33.4415C39.2958 33.1057 39.4397 32.6738 39.4397 32.194C39.4397 31.4983 39.1518 30.6827 38.3842 29.987C39.5837 30.2748 40.0635 31.3784 40.0635 32.242C40.0635 32.8178 40.0635 32.8418 40.0875 32.29C40.1834 32.0021 40.2074 31.7382 40.2074 31.5223C40.2074 31.2105 40.1594 30.9706 40.0635 30.7546C39.7276 29.843 38.792 29.4592 38.3362 29.3632C38.4561 29.3392 38.5521 29.3392 38.6481 29.3392C39.3438 29.3392 39.7756 29.5551 40.0395 29.819C40.2314 29.987 40.3513 30.1549 40.3993 30.2269C40.3513 29.891 40.2314 29.6031 40.0395 29.3632C39.6796 28.9074 39.1039 28.6915 38.5281 28.6915C38.3122 28.6915 38.0723 28.7395 37.8804 28.8115C38.1683 28.4036 38.6241 28.2597 39.0559 28.2597C39.2478 28.2597 39.4397 28.3077 39.5597 28.3796C39.2478 28.0198 38.816 27.8279 38.4322 27.8279C38.0243 27.8279 37.5685 28.0438 37.2566 28.4996C37.2087 28.3796 37.1127 28.2837 37.0887 28.1397C36.9688 27.9238 36.9208 27.6599 36.8728 27.42C36.8728 27.3961 36.8488 27.3721 36.8248 27.3721C36.8008 27.3721 36.7768 27.3961 36.7768 27.42C36.7289 27.6839 36.6329 27.9238 36.5609 28.1397C36.513 28.2837 36.417 28.4036 36.369 28.4996C36.0572 28.0438 35.6493 27.8279 35.2415 27.8279C34.8337 27.8279 34.4018 28.0198 34.114 28.4036C34.2579 28.3557 34.4258 28.2837 34.6417 28.2837C35.0496 28.2837 35.5054 28.4516 35.7453 28.8594C35.5534 28.7635 35.3375 28.7155 35.0736 28.7155C34.5458 28.7155 33.97 28.9314 33.5862 29.3632C33.3943 29.5791 33.2743 29.867 33.2503 30.2269C33.2983 30.1309 33.3943 29.963 33.5862 29.819C33.8501 29.6031 34.2579 29.3392 34.9536 29.3392C35.0736 29.3392 35.1695 29.3392 35.3135 29.3632C34.8577 29.4112 33.9221 29.819 33.5862 30.7546C33.4902 30.9706 33.4423 31.2344 33.4423 31.4983C33.4423 31.7142 33.4902 32.0021 33.5862 32.314V32.266C33.6102 31.4024 34.09 30.3228 35.2895 30.035C34.5218 30.7307 34.2099 31.5223 34.2099 32.242C34.2099 32.7458 34.3539 33.1536 34.5218 33.5135C34.4978 33.3695 34.4978 33.2016 34.4978 33.0337C34.4978 32.386 34.6417 31.5223 35.5054 30.8746C35.3614 31.0905 35.1455 31.6183 35.1455 32.29C35.1455 32.8657 35.3135 33.5615 35.8652 34.2332C35.7693 34.0173 35.6733 33.5615 35.6733 33.1057C35.6733 32.4819 35.8173 31.8342 36.369 31.4983C36.417 32.17 36.513 33.1776 36.513 34.3531C36.513 35.4327 36.465 36.6562 36.2251 37.9276C34.8337 36.8481 33.3943 36.0804 31.571 36.0804H31.3072C30.3715 36.1284 29.4359 36.3923 28.7642 36.7761L28.7402 36.8001C28.7402 36.8001 28.7402 36.8241 28.7642 36.8241C29.4119 36.6322 30.0597 36.5122 30.7314 36.5122C30.9233 36.5122 31.1152 36.5122 31.2832 36.5362C32.0988 36.5842 32.8425 36.8481 33.5382 37.16C34.4978 37.6158 35.4094 38.2395 36.2011 38.9112C35.6973 39.319 33.994 40.9504 33.4423 41.2382C33.3223 41.0943 33.1304 40.9743 32.9385 40.9743C32.8905 40.9743 32.8425 40.9743 32.7945 40.9983C32.5786 41.0463 32.3867 41.2142 32.3147 41.4781C32.2907 41.5261 32.2907 41.5981 32.2907 41.6221C32.2907 41.766 32.3387 41.9339 32.4347 42.0059C32.6266 42.1978 32.8185 42.2938 33.0584 42.2938C33.2024 42.2938 33.3703 42.2458 33.5382 42.1738C34.3059 41.862 35.2895 40.8064 36.513 39.7029C36.6329 39.6069 36.7289 39.511 36.8248 39.415C36.9448 39.5349 37.0407 39.6069 37.1367 39.7029C38.3602 40.8064 39.3438 41.814 40.1114 42.1738C40.2794 42.2218 40.4233 42.2938 40.5912 42.2938C40.8072 42.2938 40.9991 42.1978 41.215 42.0059C41.3109 41.9099 41.3589 41.79 41.3589 41.6221C41.3589 41.5741 41.3589 41.5021 41.3349 41.4781C41.2869 41.2622 41.119 41.0703 40.8551 40.9983C40.8071 40.9983 40.7592 40.9743 40.7112 40.9743C40.4953 40.9743 40.3274 41.0943 40.2074 41.2382C39.6556 40.9504 37.9284 39.319 37.4486 38.9112C38.2642 38.2395 39.1279 37.6158 40.1114 37.16C40.8072 36.8481 41.5508 36.6322 42.3665 36.5362C42.5584 36.5122 42.7503 36.5122 42.9183 36.5122C43.59 36.5122 44.2137 36.6322 44.8854 36.8241L44.9094 36.8001C44.9094 36.8001 44.9094 36.7761 44.8854 36.7761C44.2137 36.3683 43.3021 36.1044 42.3665 36.0564H42.3185Z" fill="#000075"/>
<path d="M15.3775 1.00684L0 16.5043L0.311869 16.7682L17.9444 2.11037L15.3775 1.00684Z" fill="url(#paint0_linear_2938_5350)"/>
<path d="M40.6148 8.92422L19.1198 1.10352L17.9443 2.11109L34.7373 9.64392L40.6148 8.92422Z" fill="url(#paint1_linear_2938_5350)"/>
<path d="M19.1204 1.10328L16.2895 0.0957031L15.3779 1.00732L17.9448 2.11085L19.1204 1.10328Z" fill="url(#paint2_linear_2938_5350)"/>
<path d="M23.6542 10.9873L20.9434 11.3232L21.3752 13.0025L25.5974 12.8345L23.6542 10.9873Z" fill="url(#paint3_linear_2938_5350)"/>
<path d="M28.4762 12.7383L40.5431 12.2585L34.7375 9.64355L26.2451 10.6751L28.4762 12.7383Z" fill="url(#paint4_linear_2938_5350)"/>
<path d="M8.90044 13.5302L19.3121 13.0984L19.0242 11.5391L8.5166 12.8105L8.90044 13.5302Z" fill="url(#paint5_linear_2938_5350)"/>
<path d="M40.6148 8.92383L34.7373 9.64353L40.5429 12.2584L40.6148 8.92383Z" fill="url(#paint6_linear_2938_5350)"/>
<path d="M25.2376 41.5745L8.9005 13.5303L7.58105 13.5543L27.4447 52.202L25.2376 41.5745Z" fill="url(#paint7_linear_2938_5350)"/>
<path d="M8.51666 12.8105L7.58105 13.5542L8.9005 13.5302L8.51666 12.8105Z" fill="url(#paint8_linear_2938_5350)"/>
<path d="M20.9433 11.3229L19.9597 7.41257L17.6807 5.22949L19.0241 11.5388L20.9433 11.3229Z" fill="url(#paint9_linear_2938_5350)"/>
<path d="M19.3115 13.0979L25.237 41.5739L30.8507 51.2179L21.3747 13.002L19.3115 13.0979Z" fill="url(#paint10_linear_2938_5350)"/>
<path d="M20.9436 11.3232L19.0244 11.5391L19.3123 13.0985L21.3754 13.0025L20.9436 11.3232Z" fill="url(#paint11_linear_2938_5350)"/>
<path d="M27.4444 52.2017L30.8509 51.2182L25.2373 41.5742L27.4444 52.2017Z" fill="url(#paint12_linear_2938_5350)"/>
<path d="M54.5775 36.9201L28.4764 12.7383L25.5977 12.8342L51.9626 38.2395L54.5775 36.9201Z" fill="url(#paint13_linear_2938_5350)"/>
<path d="M19.9598 7.41272L23.6542 10.9872L26.2451 10.6753L19.1201 4.07812L19.9598 7.41272Z" fill="url(#paint14_linear_2938_5350)"/>
<path d="M53.1855 39.4394L54.8408 41.0707L58.0315 40.0631L55.7765 38L53.1855 39.4394Z" fill="url(#paint15_linear_2938_5350)"/>
<path d="M28.4763 12.7379L26.2452 10.6748L23.6543 10.9867L25.5975 12.8339L28.4763 12.7379Z" fill="url(#paint16_linear_2938_5350)"/>
<path d="M19.1201 4.07812L17.6807 5.22964L19.9597 7.41272L19.1201 4.07812Z" fill="url(#paint17_linear_2938_5350)"/>
<path d="M54.8412 41.0703L44.2616 44.4289L33.7061 50.3544L57.552 43.6612L54.8412 41.0703Z" fill="url(#paint18_linear_2938_5350)"/>
<path d="M57.5517 43.661L58.0315 40.0625L54.8408 41.0701L57.5517 43.661Z" fill="url(#paint19_linear_2938_5350)"/>
<path d="M44.2616 44.4286L53.1858 39.4388L51.9624 38.2393L32.4346 48.1711L44.2616 44.4286Z" fill="url(#paint20_linear_2938_5350)"/>
<path d="M56.8562 35.7451L54.5771 36.9206L55.7766 38.0002L57.5999 36.9686L56.8562 35.7451Z" fill="url(#paint21_linear_2938_5350)"/>
<path d="M59.687 35.7927L65.4926 32.554L66.2603 30.9707L58.9434 34.6891L59.687 35.7927Z" fill="url(#paint22_linear_2938_5350)"/>
<path d="M54.5768 36.9199L51.9619 38.2394L53.1854 39.4389L55.7763 37.9995L54.5768 36.9199Z" fill="url(#paint23_linear_2938_5350)"/>
<path d="M32.4346 48.1711L33.706 50.3542L44.2616 44.4287L32.4346 48.1711Z" fill="url(#paint24_linear_2938_5350)"/>
<path d="M67.0519 31.666L65.4925 32.5536L62.2539 39.3428L64.6769 42.7733L67.0519 31.666Z" fill="url(#paint25_linear_2938_5350)"/>
<path d="M67.0515 31.6664L66.2599 30.9707L65.4922 32.554L67.0515 31.6664Z" fill="url(#paint26_linear_2938_5350)"/>
<path d="M62.2536 39.3435L59.6867 35.793L57.5996 36.9685L60.8622 42.2942L62.2536 39.3435Z" fill="url(#paint27_linear_2938_5350)"/>
<path d="M58.9434 34.6887L44.0457 13.7695L43.5898 14.0574L56.8563 35.7443L58.9434 34.6887Z" fill="url(#paint28_linear_2938_5350)"/>
<path d="M59.6873 35.793L58.9436 34.6895L56.8564 35.745L57.6001 36.9685L59.6873 35.793Z" fill="url(#paint29_linear_2938_5350)"/>
<path d="M60.8623 42.2935L64.6767 42.7733L62.2537 39.3428L60.8623 42.2935Z" fill="url(#paint30_linear_2938_5350)"/>
<path d="M79.1904 38.6235V33.4657H79.7662V38.6235H79.1904ZM86.9392 38.6235H87.5149V33.4657H86.9392V38.6235ZM156.942 38.6235H157.517V33.4657H156.942V38.6235ZM173.399 33.4657H172.823V38.6235H173.399V33.4657ZM90.3697 36.2245V35.5528C89.8179 35.3848 89.4341 35.2169 89.4341 34.7851C89.4341 34.3533 89.8419 34.0174 90.3697 33.9455V33.3697C89.4341 33.4177 88.7864 33.9934 88.7864 34.7611C88.7864 35.7447 89.626 36.0086 90.3697 36.2245ZM90.7056 33.9694C91.1614 34.0174 91.5692 34.1853 91.8091 34.5452L91.8571 34.6412L92.2649 34.1853L92.2169 34.1374C91.8571 33.7295 91.3053 33.4656 90.6816 33.4177L90.7056 33.9694ZM90.3697 38.1437C89.698 38.0957 89.2662 37.6879 89.0743 37.472L89.0263 37.376L88.6424 37.8318L88.6904 37.8798C89.0982 38.3836 89.722 38.6475 90.4177 38.6954V38.1437H90.3697ZM90.7056 35.6727V36.3444C91.2813 36.5364 91.7371 36.7283 91.7371 37.2561C91.7371 37.6639 91.4493 38.1197 90.7056 38.1437V38.7194C91.9291 38.6715 92.3849 37.9038 92.3849 37.2321C92.4089 36.1765 91.4972 35.8886 90.7056 35.6727ZM98.6222 33.4657H98.0465V38.6235H98.6222V33.4657ZM98.9581 34.0174H99.8937C100.517 34.0174 100.925 34.4252 100.925 34.977C100.925 35.5288 100.517 35.9366 99.8937 35.9366H98.9581V36.4644H100.23C101.045 36.3444 101.525 35.7687 101.525 34.929C101.525 34.0174 100.877 33.3697 99.9417 33.3697H98.9341C98.9581 33.4177 98.9581 34.0174 98.9581 34.0174ZM100.517 36.8962H99.7977L100.925 38.6475H101.693L100.517 36.8962ZM102.677 33.4657H101.957L104.02 36.4404V38.6475H104.644V36.3444L102.677 33.4657ZM104.836 36.0806L106.635 33.4896H105.915L104.5 35.5768L104.836 36.0806ZM75.7359 37.7599L77.4871 33.4657H76.8634L75.424 37.0162L75.7359 37.7599ZM73.6248 33.4657H73.001L75.1121 38.6235H75.7359L73.6248 33.4657ZM77.2712 34.953V38.6235H77.895V33.4657L77.2712 34.953ZM72.6172 33.4657V38.6235H73.1929V34.929L72.6172 33.4657ZM136.118 37.7599L137.414 34.5692L137.87 33.4657H137.246L135.807 37.0162L136.118 37.7599ZM137.654 34.953V38.6235H138.278V33.4657L137.654 34.953ZM133.983 33.4657H133.36L135.471 38.5515L135.495 38.5995H136.118L133.983 33.4657ZM133 33.4657V38.6235H133.576V34.929L133 33.4657ZM140.341 33.4657H139.717L139.765 33.5616L141.828 38.5755L141.852 38.6235H142.476L140.341 33.4657ZM142.476 37.7599L143.771 34.5692L144.227 33.4657H143.603L142.164 37.0162L142.476 37.7599ZM143.987 34.953V38.6235H144.611V33.4657L143.987 34.953ZM139.357 33.4657V38.6235H139.933V34.929L139.357 33.4657ZM94.448 33.4657H93.1525V34.0414H94.448V33.4657ZM95.7434 33.4657V34.0414H97.0149V33.4657H95.7434ZM94.7839 38.6235H95.3596V33.4657H94.7839V38.6235ZM111.769 38.1437C110.761 38.0237 110.089 37.2321 110.089 36.0566C110.089 34.8811 110.761 34.0894 111.769 33.9694V33.4177C110.401 33.5376 109.466 34.5932 109.466 36.0566C109.466 37.5199 110.401 38.5755 111.769 38.6954V38.1437ZM112.129 33.4177V33.9934C113.16 34.0414 113.88 34.8811 113.88 36.0806C113.88 37.2801 113.184 38.1197 112.129 38.1917V38.7434C113.52 38.6955 114.528 37.6159 114.528 36.1045C114.504 34.5452 113.52 33.4656 112.129 33.4177ZM116.471 33.4657V34.0414H118.87V33.4657H116.471ZM116.111 33.4657H115.535V38.6235H116.111V33.4657ZM116.471 36.2725H118.798V35.6967H116.471V36.2725ZM125.947 37.4L125.899 37.448C125.587 37.8558 125.131 38.1197 124.603 38.1197V38.6954C125.323 38.6715 125.899 38.3836 126.403 37.7838L126.451 37.6879L125.947 37.4ZM124.627 33.9455C125.131 33.9694 125.659 34.2333 125.923 34.6172L125.971 34.6651L126.475 34.3533L126.427 34.2573C125.971 33.6816 125.371 33.3937 124.651 33.3457V33.9215C124.651 33.9455 124.627 33.9455 124.627 33.9455ZM124.243 38.1437C123.212 37.9997 122.516 37.1841 122.516 36.0566C122.516 34.929 123.212 34.1134 124.243 33.9694V33.3937C122.852 33.5376 121.892 34.6172 121.892 36.0326C121.892 37.448 122.828 38.5515 124.243 38.6715V38.1437ZM129.497 38.1437C128.49 38.0237 127.818 37.2321 127.818 36.0566C127.818 34.8811 128.49 34.0894 129.497 33.9694V33.4177C128.13 33.5376 127.194 34.5932 127.194 36.0566C127.194 37.5199 128.13 38.5755 129.497 38.6954V38.1437ZM129.881 33.4177V33.9934C130.913 34.0414 131.632 34.8811 131.632 36.0806C131.632 37.2801 130.937 38.1197 129.881 38.1917V38.7434C131.272 38.6955 132.28 37.6159 132.28 36.1045C132.232 34.5452 131.272 33.4656 129.881 33.4177ZM176.853 38.1437C175.846 38.0237 175.174 37.2321 175.174 36.0566C175.174 34.8811 175.846 34.0894 176.853 33.9694V33.4177C175.486 33.5376 174.55 34.5932 174.55 36.0566C174.55 37.5199 175.486 38.5755 176.853 38.6954V38.1437ZM177.189 33.4177V33.9934C178.221 34.0414 178.94 34.8811 178.94 36.0806C178.94 37.2801 178.245 38.1197 177.189 38.1917V38.7434C178.581 38.6955 179.588 37.6159 179.588 36.1045C179.588 34.5452 178.629 33.4656 177.189 33.4177ZM147.874 38.0717C147.058 38.0237 146.626 37.496 146.626 36.5843V33.4417H146.002V36.6083C146.002 37.8558 146.674 38.6475 147.874 38.6954V38.0717ZM149.457 33.4657V36.6083C149.457 37.4959 149.001 38.0237 148.233 38.0957V38.6715C149.409 38.6235 150.081 37.8318 150.081 36.5843V33.4177L149.457 33.4657ZM161.068 38.1437C160.036 37.9997 159.341 37.1841 159.341 36.0566C159.341 34.929 160.036 34.1134 161.068 33.9694V33.3937C159.677 33.5376 158.717 34.6172 158.717 36.0326C158.717 37.448 159.653 38.5515 161.068 38.6715V38.1437ZM161.404 33.9455C161.908 33.9694 162.435 34.2333 162.699 34.6172L162.747 34.6651L163.251 34.3533L163.203 34.2573C162.747 33.6816 162.147 33.3937 161.428 33.3457V33.9215C161.428 33.9455 161.404 33.9455 161.404 33.9455ZM162.771 37.4L162.723 37.448C162.411 37.8558 161.956 38.1197 161.428 38.1197V38.6954C162.147 38.6715 162.723 38.3836 163.227 37.7838L163.275 37.6879L162.771 37.4ZM81.9253 33.4657H81.1816L84.828 38.6235H85.5957L81.9253 33.4657ZM85.4758 37.8558V33.4657H84.9V37.0162L85.4758 37.8558ZM81.2775 34.2333V38.6235H81.8533V35.073L81.2775 34.2333ZM169.201 33.4896H167.905V34.0654H169.201V33.4896ZM170.184 33.4896H169.56V38.6475H170.136L170.184 33.4896ZM170.52 33.4896V34.0654H171.791V33.4896H170.52ZM155.574 37.8798V33.4657H154.998V37.0402L155.574 37.8798ZM152 33.4657H151.28L154.927 38.6235H155.694L152 33.4657ZM151.352 34.2333V38.6235H151.928V35.073L151.352 34.2333ZM181.339 33.4657H180.62L184.266 38.6235H185.034L181.339 33.4657ZM184.914 37.8798V33.4657H184.338V37.0162L184.914 37.8798ZM180.716 34.2333V38.6235H181.291V35.073L180.716 34.2333ZM166.682 36.6803H165.458L165.242 37.2561H166.945L166.682 36.6803ZM166.562 33.8495L166.25 34.6651L167.833 38.5995H168.505L166.562 33.8495ZM166.37 33.4657H165.722L163.659 38.5035L163.611 38.6475H164.283L166.37 33.4657Z" fill="#000075"/>
<path d="M187.649 36.2249V35.5532C187.097 35.3853 186.713 35.2173 186.713 34.7855C186.713 34.3537 187.121 34.0179 187.649 33.9459V33.3701C186.713 33.4181 186.065 33.9939 186.065 34.7615C186.065 35.7691 186.881 36.009 187.649 36.2249Z" fill="#000075"/>
<path d="M187.961 33.9697C188.417 34.0177 188.825 34.1856 189.064 34.5455L189.112 34.6415L189.52 34.1856L189.496 34.1377C189.136 33.7298 188.585 33.4659 187.961 33.418V33.9697Z" fill="#000075"/>
<path d="M187.649 38.1437C186.977 38.0957 186.546 37.6879 186.354 37.4719L186.306 37.376L185.922 37.8318L185.97 37.8798C186.378 38.3836 187.001 38.6474 187.697 38.6954V38.1437H187.649Z" fill="#000075"/>
<path d="M187.961 35.6729V36.3446C188.537 36.5365 188.993 36.7284 188.993 37.2562C188.993 37.664 188.705 38.1198 187.961 38.1438V38.7196C189.184 38.6716 189.64 37.9039 189.64 37.2322C189.664 36.1766 188.753 35.8888 187.961 35.6729Z" fill="#000075"/>
<path d="M90.8013 41.8857H90.2256V47.0436H90.8013V41.8857Z" fill="#000075"/>
<path d="M127.05 41.8857H126.475V47.0436H127.05V41.8857Z" fill="#000075"/>
<path d="M187.338 47.0436H187.913V44.7405L185.994 41.8857H185.274L187.338 44.8365V47.0436Z" fill="#000075"/>
<path d="M187.841 43.9729L188.177 44.4767L190 41.8857H189.28L187.841 43.9729Z" fill="#000075"/>
<path d="M114.216 46.9956L114.24 47.0436H114.864L112.729 41.8857H112.129L112.153 41.9817L114.216 46.9956Z" fill="#000075"/>
<path d="M114.888 46.1799L116.183 43.0133L116.639 41.8857H116.016L114.576 45.4602L114.888 46.1799Z" fill="#000075"/>
<path d="M112.344 47.0436V43.3491L111.769 41.8857V47.0436H112.344Z" fill="#000075"/>
<path d="M116.999 47.0436V41.8857L116.399 43.3971V47.0436H116.999Z" fill="#000075"/>
<path d="M124.028 41.8857H123.452V47.0436H124.028V41.8857Z" fill="#000075"/>
<path d="M125.635 41.8857H124.363V42.4615H125.635V41.8857Z" fill="#000075"/>
<path d="M123.092 41.8857H121.797V42.4615H123.092V41.8857Z" fill="#000075"/>
<path d="M103.684 46.5405C102.676 46.4205 102.005 45.6288 102.005 44.4533C102.005 43.2778 102.676 42.4862 103.684 42.3662V41.8145C102.316 41.9344 101.381 42.99 101.381 44.4533C101.381 45.9167 102.316 46.9723 103.684 47.0922V46.5405Z" fill="#000075"/>
<path d="M104.044 41.8145V42.3902C105.076 42.4382 105.795 43.2778 105.795 44.4773C105.795 45.6768 105.1 46.5165 104.044 46.5884V47.1402C105.435 47.0922 106.443 46.0127 106.443 44.5013C106.395 42.942 105.435 41.8624 104.044 41.8145Z" fill="#000075"/>
<path d="M130.337 46.5405C129.33 46.4205 128.658 45.6288 128.658 44.4533C128.658 43.2778 129.33 42.4862 130.337 42.3662V41.8145C128.97 41.9344 128.034 42.99 128.034 44.4533C128.034 45.9167 128.97 46.9723 130.337 47.0922V46.5405Z" fill="#000075"/>
<path d="M130.697 41.8145V42.3902C131.729 42.4382 132.449 43.2778 132.449 44.4773C132.449 45.6768 131.753 46.5165 130.697 46.5884V47.1402C132.089 47.0922 133.096 46.0127 133.096 44.5013C133.096 43.014 132.113 41.8624 130.697 41.8145Z" fill="#000075"/>
<path d="M148.857 44.1172H146.53V44.693H148.857V44.1172Z" fill="#000075"/>
<path d="M148.929 46.4678H146.53V47.0435H148.929V46.4678Z" fill="#000075"/>
<path d="M77.1271 47.0439L75.2079 42.2939L74.8721 43.1096L76.4314 47.0439H77.1271Z" fill="#000075"/>
<path d="M75.5447 45.7247L75.3048 45.125H74.0573L73.8174 45.7247H75.5447Z" fill="#000075"/>
<path d="M74.9927 41.8857H74.3449L72.2818 46.9236L72.2578 47.0436H72.9295L74.9927 41.8857Z" fill="#000075"/>
<path d="M81.3262 45.4602L81.9019 46.2759V41.8857H81.3262V45.4602Z" fill="#000075"/>
<path d="M82.0216 47.0436L78.3271 41.8857H77.6074L81.2299 47.0436H82.0216Z" fill="#000075"/>
<path d="M78.3269 43.469L77.7031 42.6533V47.0435H78.3269V43.469Z" fill="#000075"/>
<path d="M134.608 43.5174L134.008 42.6777V47.0439H134.608V43.5174Z" fill="#000075"/>
<path d="M137.63 45.4602L138.23 46.3239V41.8857H137.63V45.4602Z" fill="#000075"/>
<path d="M137.535 47.0436H138.326L134.608 41.8857H133.912L137.511 47.0196L137.535 47.0436Z" fill="#000075"/>
<path d="M163.947 45.4602L164.595 46.2759V41.8857H163.947V45.4602Z" fill="#000075"/>
<path d="M164.667 47.0436L160.973 41.8857H160.253L163.875 47.0436H164.667Z" fill="#000075"/>
<path d="M160.948 43.5174L160.372 42.6777V47.0439H160.948V43.5174Z" fill="#000075"/>
<path d="M95.5762 45.4602L96.1759 46.2759V41.8857H95.5762V45.4602Z" fill="#000075"/>
<path d="M92.5533 43.5174L91.9775 42.6777V47.0439H92.5533V43.5174Z" fill="#000075"/>
<path d="M95.5035 47.0436H96.2951L92.6007 41.8857H91.833L95.4795 47.0196L95.5035 47.0436Z" fill="#000075"/>
<path d="M83.6529 41.8857H83.0771V47.0436H83.6529V41.8857Z" fill="#000075"/>
<path d="M84.7802 41.8857H84.0605V42.4615H84.7802C85.9797 42.4615 86.7474 43.2292 86.7474 44.4287C86.7474 45.6282 85.9797 46.4918 84.7802 46.4918H84.0605V47.0676H84.7802C86.3396 47.0676 87.3951 46.012 87.3951 44.4287C87.3712 42.9173 86.3396 41.8857 84.7802 41.8857Z" fill="#000075"/>
<path d="M97.9029 41.8857H97.3271V47.0436H97.9029V41.8857Z" fill="#000075"/>
<path d="M100.686 41.8857H98.2871V42.4615H100.686V41.8857Z" fill="#000075"/>
<path d="M100.614 44.1172H98.2871V44.693H100.614V44.1172Z" fill="#000075"/>
<path d="M108.17 42.4622H109.106C109.73 42.4622 110.138 42.87 110.138 43.4218C110.138 43.9735 109.73 44.3814 109.106 44.3814H108.17V44.9092H109.442C110.258 44.7892 110.737 44.2134 110.737 43.3738C110.737 42.4622 110.09 41.8145 109.154 41.8145H108.146C108.17 41.8384 108.17 42.4622 108.17 42.4622Z" fill="#000075"/>
<path d="M110.906 47.0442L109.706 45.293H108.986L110.162 47.0442H110.906Z" fill="#000075"/>
<path d="M107.81 41.8857H107.234V47.0436H107.81V41.8857Z" fill="#000075"/>
<path d="M120.957 45.7247L120.741 45.125H119.518L119.254 45.7247H120.957Z" fill="#000075"/>
<path d="M122.54 47.0439L120.645 42.2939L120.333 43.0856L121.892 47.0439H122.54Z" fill="#000075"/>
<path d="M120.405 41.8857H119.805L117.742 46.9236L117.622 47.0436H118.342L120.405 41.8857Z" fill="#000075"/>
<path d="M155.598 41.8857H155.022V44.6686H158.237V44.1168H155.598V41.8857Z" fill="#000075"/>
<path d="M155.598 45.0283H155.022V47.0675H155.598V45.0283Z" fill="#000075"/>
<path d="M183.043 42.3898C183.571 42.4138 184.075 42.6777 184.338 43.0615L184.386 43.1095L184.89 42.7976L184.842 42.7017C184.386 42.1259 183.763 41.814 183.043 41.79V42.3898Z" fill="#000075"/>
<path d="M184.938 44.3574H182.683V44.8612H184.938V44.3574Z" fill="#000075"/>
<path d="M184.363 45.2207V45.9884C184.075 46.3003 183.595 46.5162 183.067 46.5401V47.1159C183.835 47.0919 184.459 46.804 184.939 46.2763L184.963 46.2523V45.2207H184.363Z" fill="#000075"/>
<path d="M182.683 46.54C181.652 46.3961 180.98 45.5804 180.98 44.4529C180.98 43.3254 181.676 42.5097 182.683 42.3658V41.79C181.292 41.934 180.356 43.0135 180.356 44.4289C180.356 45.8443 181.292 46.9239 182.683 47.0678V46.54Z" fill="#000075"/>
<path d="M174.478 46.4678H172.415V47.0435H174.478V46.4678Z" fill="#000075"/>
<path d="M143.124 41.8857H142.548V47.0436H143.124V41.8857Z" fill="#000075"/>
<path d="M144.755 41.8857H143.483V42.4615H144.755V41.8857Z" fill="#000075"/>
<path d="M142.236 41.8857H140.94V42.4615H142.236V41.8857Z" fill="#000075"/>
<path d="M146.17 41.8857H145.595V47.0436H146.17V41.8857Z" fill="#000075"/>
<path d="M148.857 44.1172H146.53V44.693H148.857V44.1172Z" fill="#000075"/>
<path d="M148.857 41.8857H146.53V42.4615H148.857V41.8857Z" fill="#000075"/>
<path d="M159.173 41.8857H158.598V47.0436H159.173V41.8857Z" fill="#000075"/>
<path d="M172.007 41.8857H171.432V47.0436H172.007V41.8857Z" fill="#000075"/>
<path d="M176.854 46.5405C175.846 46.4205 175.175 45.6288 175.175 44.4533C175.175 43.2778 175.846 42.4862 176.854 42.3662V41.8145C175.486 41.9344 174.551 42.99 174.551 44.4533C174.551 45.9167 175.486 46.9723 176.854 47.0922V46.5405Z" fill="#000075"/>
<path d="M177.189 41.8145V42.3902C178.221 42.4382 178.941 43.2778 178.941 44.4773C178.941 45.6768 178.245 46.5165 177.189 46.5884V47.1402C178.581 47.0922 179.588 46.0127 179.588 44.5013C179.588 42.942 178.605 41.8624 177.189 41.8145Z" fill="#000075"/>
<path d="M167.809 46.5405C166.801 46.4205 166.13 45.6288 166.13 44.4533C166.13 43.2778 166.801 42.4862 167.809 42.3662V41.8145C166.441 41.9344 165.506 42.99 165.506 44.4533C165.506 45.9167 166.441 46.9723 167.809 47.0922V46.5405Z" fill="#000075"/>
<path d="M168.169 41.8145V42.3902C169.201 42.4382 169.92 43.2778 169.92 44.4773C169.92 45.6768 169.225 46.5165 168.169 46.5884V47.1402C169.56 47.0922 170.568 46.0127 170.568 44.5013C170.544 42.942 169.56 41.8624 168.169 41.8145Z" fill="#000075"/>
<path d="M152.072 46.54C151.04 46.3961 150.344 45.5804 150.344 44.4529C150.344 43.3254 151.04 42.5097 152.072 42.3658V41.79C150.68 41.934 149.721 43.0135 149.721 44.4289C149.721 45.8443 150.656 46.9479 152.072 47.0678V46.54Z" fill="#000075"/>
<path d="M152.408 42.3898C152.912 42.4138 153.44 42.6777 153.704 43.0615L153.752 43.1095L154.255 42.7976L154.207 42.7017C153.752 42.1259 153.152 41.838 152.432 41.79V42.3658C152.432 42.3898 152.408 42.3898 152.408 42.3898Z" fill="#000075"/>
<path d="M153.752 45.8203L153.704 45.8683C153.392 46.2761 152.936 46.54 152.408 46.54V47.1158C153.128 47.0918 153.704 46.8039 154.207 46.2041L154.255 46.1082L153.752 45.8203Z" fill="#000075"/>
<path d="M134.415 16.4811C134.583 16.697 134.631 16.9609 134.631 17.3447V18.5682H135.207V17.2727C135.207 16.7929 135.063 16.3851 134.823 16.0972C134.487 15.6894 134.103 15.5455 133.552 15.5455H130.913V16.1212H133.623C133.959 16.1212 134.247 16.2892 134.415 16.4811ZM154.495 14.9937H153.919V18.6162H154.495V14.9937ZM167.569 23.4142H166.993V26.9886H167.569V23.4142ZM153.727 13.7222H153.103V14.5859H153.727V13.7222ZM163.059 13.6982H162.483V19.5518H163.059V13.6982ZM157.973 19.5518C158.741 19.5518 159.365 19.3838 159.82 19.024C160.3 18.6881 160.444 18.0644 160.444 17.6326V13.7222H159.868V17.5606C159.868 18.0644 159.725 18.4003 159.413 18.6162C159.101 18.8321 158.693 18.952 158.213 18.952H155.886L155.934 19.5278L157.973 19.5518ZM157.997 14.5379H157.421V18.5682H157.997V14.5379ZM82.1892 14.5379H81.6134V18.5682H82.1892V14.5379ZM125.707 24.5657L125.755 24.4697L125.707 24.4217C125.587 24.3258 125.491 24.2538 125.371 24.1578L125.323 24.1099L124.124 27.0126H124.771L125.707 24.5657ZM130.625 14.9697H130.049V18.5922H130.625V14.9697ZM121.221 24.1578C121.077 24.2538 121.005 24.3498 120.885 24.4457L120.837 24.4937L121.844 27.0126H122.516L121.317 24.1099L121.221 24.1578ZM117.766 27.0126V22.1667H117.19V26.9647H117.766V27.0126ZM124.723 24.4937L124.939 23.9419C124.363 23.6301 123.812 23.4381 123.26 23.4381C122.732 23.4381 122.156 23.6301 121.581 23.9419L121.796 24.4937C122.276 24.1818 122.732 24.0139 123.236 24.0139C123.764 24.0379 124.315 24.2298 124.723 24.4937ZM149.217 23.0303V22.1667H148.593V23.0303H149.217ZM87.299 13.6982H86.7232V18.5682H87.299V13.6982ZM154.495 18.928H86.6993V19.5038H154.495V18.928ZM155.19 13.7222H154.567V14.5859H155.19V13.7222ZM178.796 27.0126H179.372V23.4381H178.796V27.0126ZM179.372 22.1427H178.748V23.0063H179.372V22.1427ZM183.451 23.0303V22.1667H182.827V23.0303H183.451ZM180.452 13.6982H179.876V19.5518H180.452V13.6982ZM182.755 20.9912C183.786 20.9912 183.93 20.1755 183.93 19.4558V14.9697H183.355V19.4558C183.355 20.0076 183.259 20.3674 182.827 20.3674C182.731 20.3674 182.659 20.3434 182.563 20.3195L182.443 20.2715L182.227 20.8232L182.347 20.8712C182.443 20.9672 182.611 20.9912 182.755 20.9912ZM188.608 19.5518L188.632 18.976H188.416C186.929 18.976 186.449 18.0644 186.449 17.2967C186.449 16.2652 187.481 15.6174 188.416 15.6174H188.632V15.0417H188.608C186.905 15.0417 185.802 15.9293 185.802 17.3207C185.802 18.7121 186.833 19.5518 188.608 19.5518ZM183.93 13.7462H183.307V14.6099H183.93V13.7462ZM173.063 19.5518L173.087 18.976H172.823C171.695 18.976 170.88 18.3043 170.88 17.2967C170.88 16.2892 171.887 15.6174 172.823 15.6174H173.087V15.0417H173.063C171.408 15.0417 170.304 15.9773 170.304 17.3207C170.328 18.3763 171.048 19.5518 173.063 19.5518ZM176.302 20.9912C177.333 20.9912 177.477 20.1755 177.477 19.4558V14.9697H176.901V19.4558C176.901 20.0076 176.805 20.3674 176.373 20.3674C176.278 20.3674 176.206 20.3434 176.11 20.3195L175.99 20.2715L175.774 20.8232L175.894 20.8712C175.99 20.9672 176.158 20.9912 176.302 20.9912ZM174.046 19.5518V14.9937H173.471V19.5518H174.046ZM172.247 27.0126V23.4381H171.671V27.0126H172.247ZM172.583 13.7462H171.959V14.6099H172.583V13.7462ZM174.046 13.7462H173.447V14.6099H174.07V13.7462H174.046ZM177.309 23.0543H177.933V22.1907H177.309V23.0543ZM176.757 27.0366C176.445 26.7248 176.134 26.3169 176.134 25.7412C176.134 24.6616 177.093 24.0619 178.053 24.0619H178.461V23.4861H178.269C176.589 23.4861 175.51 24.3498 175.51 25.7652C175.51 26.2689 175.654 26.7008 175.918 27.0606L176.757 27.0366ZM172.247 22.1667H171.623V23.0303H172.247V22.1667ZM146.986 25.6932C146.986 26.7967 147.706 27.9722 149.745 27.9722H149.769V27.3965H149.553C148.425 27.3965 147.61 26.7248 147.61 25.7172C147.61 24.7096 148.617 24.0379 149.553 24.0379H149.769V23.4621H149.745C148.137 23.4141 146.986 24.3737 146.986 25.6932ZM166.154 29.4596H166.778V28.596H166.154V29.4596ZM138.877 27.9722H139.453V22.1907H138.877V27.9722ZM150.105 23.0543H150.728V22.1907H150.105V23.0543ZM150.105 27.9722H150.68V23.4381H150.105V27.9722ZM132.76 27.3965C132.784 27.3485 132.808 27.2765 132.808 27.2285C132.808 27.2046 132.832 27.1806 132.832 27.1806L132.856 27.1326C132.88 27.0846 132.904 27.0366 132.904 26.9886C132.952 26.7727 133.024 26.5088 133.024 26.2689C133.024 25.7892 132.88 25.3573 132.688 24.9735C132.472 24.5897 132.112 24.2778 131.68 24.0859C131.392 23.9419 131.105 23.8939 130.793 23.87V24.4457C131.728 24.5657 132.448 25.2854 132.448 26.2929C132.448 27.3005 131.776 27.9962 130.793 28.0922V28.6679C131.129 28.6439 131.464 28.548 131.728 28.404H131.752C131.752 28.404 131.776 28.3801 131.8 28.3801L131.848 28.3561C131.896 28.3321 131.944 28.3081 131.992 28.2601L132.04 28.2361C132.088 28.1881 132.16 28.1881 132.184 28.1162C132.232 28.0922 132.232 28.0682 132.304 28.0202L132.328 27.9962L132.376 27.9482C132.52 27.8043 132.64 27.6364 132.736 27.4684L132.76 27.3965ZM136.238 27.0366H136.814V22.1907H136.238V27.0366ZM133.096 27.4205C133 27.5644 132.952 27.7323 132.832 27.8283L132.736 27.9722H136.814V27.3965H133.096V27.4205ZM188.968 27.9243V27.9722C188.968 27.9722 188.944 28.0202 188.944 28.0682C188.896 28.572 188.536 28.8838 187.865 28.8838C187.457 28.8838 187.121 28.7159 186.761 28.524L186.641 28.476L186.353 29.0038L186.473 29.0518C186.881 29.2677 187.289 29.4596 187.841 29.4596C188.896 29.4596 189.592 28.8838 189.592 27.9482V23.4621H188.968V27.9243ZM188.608 27.9722L188.632 27.3965H188.416C186.929 27.3965 186.449 26.5089 186.449 25.7172C186.449 24.6856 187.481 24.0379 188.416 24.0379H188.632V23.4621H188.608C186.905 23.4621 185.802 24.3498 185.802 25.7412C185.802 27.1086 186.833 27.9722 188.608 27.9722ZM167.641 29.4596H168.265V28.596H167.641V29.4596ZM188.968 14.9937V19.5758H188.944C188.896 20.0796 188.536 20.3914 187.865 20.3914C187.457 20.3914 187.121 20.2235 186.761 20.0316L186.641 19.9836L186.353 20.5114L186.473 20.5594C186.881 20.7753 187.289 20.9672 187.841 20.9672C188.896 20.9672 189.592 20.3914 189.592 19.4318V14.9457L188.968 14.9937ZM151.04 27.9722H184.218V27.3965H151.04V27.9722ZM184.314 23.0543H184.938V22.1907H184.314V23.0543ZM183.642 27.0366H184.218V23.4621H183.642V27.0366ZM76.2157 22.1667V23.0303H76.8394V22.1667H76.2157ZM73.6488 18.6162C73.3369 18.4003 73.1929 18.0644 73.1929 17.5606V15.8094H72.6172V17.6566C72.6172 18.0644 72.7851 18.7121 73.2409 19.048C73.7447 19.4318 74.2005 19.5758 75.0881 19.5758H79.1184V19H74.8243C74.3684 18.952 73.9606 18.8321 73.6488 18.6162ZM76.8154 13.7462H76.1917V14.6099H76.8154V13.7462ZM78.4947 27.0366H79.0705V23.4621H78.4947V27.0366ZM78.5187 18.6162H79.0945V14.9937H78.5187V18.6162ZM75.352 13.7462H74.7043V14.6099H75.328V13.7462H75.352ZM75.352 22.1667H74.7043V23.0303H75.328V22.1667H75.352ZM83.9884 19.024C84.4682 18.6881 84.6121 18.0644 84.6121 17.6326V13.7222H84.0364V17.5606C84.0364 18.0644 83.8924 18.4003 83.5806 18.6162C83.3167 18.8081 82.9328 18.928 82.525 18.952H80.0541L80.102 19.5278H82.1412C82.9328 19.5518 83.5326 19.3838 83.9884 19.024ZM73.6488 27.0366C73.3369 26.8207 73.1929 26.4849 73.1929 25.9811V24.2298H72.6172V26.077C72.6172 26.4849 72.7851 27.1086 73.2409 27.4684C73.7447 27.8523 74.2005 27.9962 75.0881 27.9962H79.0945V27.4205H74.8482C74.3684 27.3965 73.9606 27.2765 73.6488 27.0366ZM106.203 27.9722L106.227 27.3965H105.963C104.476 27.3965 103.996 26.5089 103.996 25.7172C103.996 24.6856 105.028 24.0379 105.963 24.0379H106.227V23.4621H106.203C104.5 23.4621 103.396 24.3498 103.396 25.7412C103.396 27.1326 104.452 27.9722 106.203 27.9722ZM106.587 27.9243V28.0202C106.539 28.548 106.131 28.8599 105.483 28.8599C105.076 28.8599 104.74 28.6919 104.38 28.5L104.26 28.452L103.972 28.9798L104.092 29.0278C104.5 29.2437 104.908 29.4356 105.459 29.4356C106.323 29.4356 107.211 29.2917 107.211 28.2601V23.4621H106.635L106.587 27.9243ZM81.3255 27.0126V22.1667H80.7498V26.9647H81.3255V27.0126ZM128.514 25.1414C128.346 25.5013 128.25 25.8851 128.25 26.2689C128.25 27.5644 129.209 28.596 130.481 28.6679V28.0442C129.569 27.9962 128.826 27.1806 128.826 26.245C128.826 25.3094 129.521 24.4937 130.481 24.3977V23.822C130.313 23.822 130.121 23.846 129.977 23.9179C129.329 24.0859 128.802 24.5177 128.514 25.1414ZM128.154 27.4205L128.13 27.3725H107.522V27.9482H128.514L128.394 27.8043C128.346 27.7083 128.274 27.5884 128.154 27.4205ZM97.6386 27.4205L97.6147 27.3725H80.7018V27.9482H97.9985L97.9025 27.8043C97.8306 27.7083 97.7586 27.5404 97.6386 27.4205ZM101.189 24.0379C100.901 23.894 100.613 23.846 100.302 23.822V24.3977C101.237 24.5177 101.957 25.2374 101.957 26.245C101.957 27.2525 101.285 27.9482 100.302 28.0442V28.62C100.637 28.596 100.973 28.5 101.237 28.3561H101.261C101.261 28.3561 101.285 28.3321 101.309 28.3321L101.333 28.3081C101.381 28.2841 101.453 28.2601 101.477 28.2121C101.477 28.2121 101.501 28.1881 101.525 28.1881C101.573 28.1402 101.645 28.1402 101.669 28.0682C101.717 28.0442 101.717 28.0202 101.813 27.9482L101.861 27.9003C102.005 27.7563 102.125 27.5884 102.221 27.4205L102.269 27.2765C102.293 27.2285 102.317 27.1566 102.317 27.1086C102.317 27.0846 102.341 27.0606 102.341 27.0606L102.365 27.0366C102.389 26.9886 102.413 26.9407 102.413 26.8927C102.461 26.6768 102.533 26.4129 102.533 26.173C102.533 25.6932 102.389 25.2614 102.197 24.8775C101.957 24.5657 101.621 24.2538 101.189 24.0379ZM97.9985 25.1414C97.8306 25.5013 97.7346 25.8851 97.7346 26.2689C97.7346 27.5644 98.6942 28.596 99.9657 28.6679V28.0442C99.0541 27.9962 98.3104 27.1806 98.3104 26.245C98.3104 25.3094 99.0061 24.4937 99.9657 24.3977V23.822C99.7977 23.822 99.6058 23.846 99.4619 23.9179C98.8381 24.0859 98.2864 24.5177 97.9985 25.1414Z" fill="#000075"/>
</g>
<defs>
<linearGradient id="paint0_linear_2938_5350" x1="-17.6169" y1="-23.2846" x2="44.9617" y2="53.449" gradientUnits="userSpaceOnUse">
<stop stop-color="#00C200"/>
<stop offset="0.04" stop-color="#00C100"/>
<stop offset="0.1" stop-color="#00BD00"/>
<stop offset="0.17" stop-color="#00B704"/>
<stop offset="0.24" stop-color="#00AF52"/>
<stop offset="0.32" stop-color="#00A58C"/>
<stop offset="0.38" stop-color="#009CBD"/>
<stop offset="1" stop-color="#002375"/>
</linearGradient>
<linearGradient id="paint1_linear_2938_5350" x1="-1.51607" y1="-32.2403" x2="55.9729" y2="38.2467" gradientUnits="userSpaceOnUse">
<stop stop-color="#00C200"/>
<stop offset="0.04" stop-color="#00C100"/>
<stop offset="0.1" stop-color="#00BD00"/>
<stop offset="0.17" stop-color="#00B704"/>
<stop offset="0.24" stop-color="#00AF52"/>
<stop offset="0.32" stop-color="#00A58C"/>
<stop offset="0.38" stop-color="#009CBD"/>
<stop offset="1" stop-color="#002375"/>
</linearGradient>
<linearGradient id="paint2_linear_2938_5350" x1="-6.55022" y1="-28.1292" x2="50.9304" y2="42.3493" gradientUnits="userSpaceOnUse">
<stop stop-color="#00C200"/>
<stop offset="0.04" stop-color="#00C100"/>
<stop offset="0.1" stop-color="#00BD00"/>
<stop offset="0.17" stop-color="#00B704"/>
<stop offset="0.24" stop-color="#00AF52"/>
<stop offset="0.32" stop-color="#00A58C"/>
<stop offset="0.38" stop-color="#009CBD"/>
<stop offset="1" stop-color="#002375"/>
</linearGradient>
<linearGradient id="paint3_linear_2938_5350" x1="-16.6544" y1="31.2555" x2="51.8754" y2="-1.66311" gradientUnits="userSpaceOnUse">
<stop stop-color="#00C200"/>
<stop offset="0.4" stop-color="#009CBD"/>
<stop offset="0.52" stop-color="#0086AF"/>
<stop offset="0.78" stop-color="#004E8E"/>
<stop offset="0.95" stop-color="#002375"/>
</linearGradient>
<linearGradient id="paint4_linear_2938_5350" x1="-14.9958" y1="34.709" x2="53.5339" y2="1.79028" gradientUnits="userSpaceOnUse">
<stop stop-color="#00C200"/>
<stop offset="0.4" stop-color="#009CBD"/>
<stop offset="0.52" stop-color="#0086AF"/>
<stop offset="0.78" stop-color="#004E8E"/>
<stop offset="0.95" stop-color="#002375"/>
</linearGradient>
<linearGradient id="paint5_linear_2938_5350" x1="-18.07" y1="28.317" x2="50.4681" y2="-4.60174" gradientUnits="userSpaceOnUse">
<stop stop-color="#00C200"/>
<stop offset="0.4" stop-color="#009CBD"/>
<stop offset="0.52" stop-color="#0086AF"/>
<stop offset="0.78" stop-color="#004E8E"/>
<stop offset="0.95" stop-color="#002375"/>
</linearGradient>
<linearGradient id="paint6_linear_2938_5350" x1="-14.3996" y1="35.9452" x2="54.1301" y2="3.02656" gradientUnits="userSpaceOnUse">
<stop stop-color="#00C200"/>
<stop offset="0.4" stop-color="#009CBD"/>
<stop offset="0.52" stop-color="#0086AF"/>
<stop offset="0.78" stop-color="#004E8E"/>
<stop offset="0.95" stop-color="#002375"/>
</linearGradient>
<linearGradient id="paint7_linear_2938_5350" x1="-10.2912" y1="46.246" x2="60.0032" y2="12.4813" gradientUnits="userSpaceOnUse">
<stop stop-color="#00C200"/>
<stop offset="0.4" stop-color="#009CBD"/>
<stop offset="0.5" stop-color="#0082AD"/>
<stop offset="0.73" stop-color="#00508F"/>
<stop offset="0.9" stop-color="#002F7C"/>
<stop offset="1" stop-color="#002375"/>
</linearGradient>
<linearGradient id="paint8_linear_2938_5350" x1="-19.6395" y1="26.7908" x2="50.655" y2="-6.97387" gradientUnits="userSpaceOnUse">
<stop stop-color="#00C200"/>
<stop offset="0.4" stop-color="#009CBD"/>
<stop offset="0.5" stop-color="#0082AD"/>
<stop offset="0.73" stop-color="#00508F"/>
<stop offset="0.9" stop-color="#002F7C"/>
<stop offset="1" stop-color="#002375"/>
</linearGradient>
<linearGradient id="paint9_linear_2938_5350" x1="-1.86866" y1="-28.8692" x2="50.7227" y2="65.5382" gradientUnits="userSpaceOnUse">
<stop offset="0.17" stop-color="#009CBD"/>
<stop offset="0.29" stop-color="#0096B9"/>
<stop offset="0.46" stop-color="#0083AE"/>
<stop offset="0.66" stop-color="#00679D"/>
<stop offset="0.88" stop-color="#003E84"/>
<stop offset="1" stop-color="#002375"/>
</linearGradient>
<linearGradient id="paint10_linear_2938_5350" x1="-6.52702" y1="-26.2765" x2="46.0643" y2="68.1309" gradientUnits="userSpaceOnUse">
<stop offset="0.17" stop-color="#009CBD"/>
<stop offset="0.29" stop-color="#0096B9"/>
<stop offset="0.46" stop-color="#0083AE"/>
<stop offset="0.66" stop-color="#00679D"/>
<stop offset="0.88" stop-color="#003E84"/>
<stop offset="1" stop-color="#002375"/>
</linearGradient>
<linearGradient id="paint11_linear_2938_5350" x1="-2.54327" y1="-28.4956" x2="50.048" y2="65.9117" gradientUnits="userSpaceOnUse">
<stop offset="0.17" stop-color="#009CBD"/>
<stop offset="0.29" stop-color="#0096B9"/>
<stop offset="0.46" stop-color="#0083AE"/>
<stop offset="0.66" stop-color="#00679D"/>
<stop offset="0.88" stop-color="#003E84"/>
<stop offset="1" stop-color="#002375"/>
</linearGradient>
<linearGradient id="paint12_linear_2938_5350" x1="-12.4547" y1="-22.9736" x2="40.1366" y2="71.4338" gradientUnits="userSpaceOnUse">
<stop offset="0.17" stop-color="#009CBD"/>
<stop offset="0.29" stop-color="#0096B9"/>
<stop offset="0.46" stop-color="#0083AE"/>
<stop offset="0.66" stop-color="#00679D"/>
<stop offset="0.88" stop-color="#003E84"/>
<stop offset="1" stop-color="#002375"/>
</linearGradient>
<linearGradient id="paint13_linear_2938_5350" x1="68.4711" y1="46.7015" x2="-30.125" y2="-27.3125" gradientUnits="userSpaceOnUse">
<stop stop-color="#00C200"/>
<stop offset="0.34" stop-color="#009CBD"/>
<stop offset="1" stop-color="#002375"/>
</linearGradient>
<linearGradient id="paint14_linear_2938_5350" x1="70.3074" y1="44.2548" x2="-28.2802" y2="-29.759" gradientUnits="userSpaceOnUse">
<stop stop-color="#00C200"/>
<stop offset="0.34" stop-color="#009CBD"/>
<stop offset="1" stop-color="#002375"/>
</linearGradient>
<linearGradient id="paint15_linear_2938_5350" x1="67.1672" y1="48.4339" x2="-31.4204" y2="-25.5799" gradientUnits="userSpaceOnUse">
<stop stop-color="#00C200"/>
<stop offset="0.34" stop-color="#009CBD"/>
<stop offset="1" stop-color="#002375"/>
</linearGradient>
<linearGradient id="paint16_linear_2938_5350" x1="69.9129" y1="44.7798" x2="-28.6748" y2="-29.234" gradientUnits="userSpaceOnUse">
<stop stop-color="#00C200"/>
<stop offset="0.34" stop-color="#009CBD"/>
<stop offset="1" stop-color="#002375"/>
</linearGradient>
<linearGradient id="paint17_linear_2938_5350" x1="70.4939" y1="44.0021" x2="-28.0937" y2="-30.0118" gradientUnits="userSpaceOnUse">
<stop stop-color="#00C200"/>
<stop offset="0.34" stop-color="#009CBD"/>
<stop offset="1" stop-color="#002375"/>
</linearGradient>
<linearGradient id="paint18_linear_2938_5350" x1="67.0199" y1="37.2808" x2="-8.985" y2="69.198" gradientUnits="userSpaceOnUse">
<stop stop-color="#00C200"/>
<stop offset="0.22" stop-color="#009CBD"/>
<stop offset="1" stop-color="#002375"/>
</linearGradient>
<linearGradient id="paint19_linear_2938_5350" x1="67.2133" y1="37.7395" x2="-8.79158" y2="69.6651" gradientUnits="userSpaceOnUse">
<stop stop-color="#00C200"/>
<stop offset="0.22" stop-color="#009CBD"/>
<stop offset="1" stop-color="#002375"/>
</linearGradient>
<linearGradient id="paint20_linear_2938_5350" x1="71.1859" y1="31.6454" x2="-17.4992" y2="68.8934" gradientUnits="userSpaceOnUse">
<stop stop-color="#00C200"/>
<stop offset="0.26" stop-color="#009CBD"/>
<stop offset="0.27" stop-color="#0099BB"/>
<stop offset="0.51" stop-color="#00679D"/>
<stop offset="0.72" stop-color="#004287"/>
<stop offset="0.89" stop-color="#002B7A"/>
<stop offset="1" stop-color="#002375"/>
</linearGradient>
<linearGradient id="paint21_linear_2938_5350" x1="70.8294" y1="30.7848" x2="-17.8643" y2="68.041" gradientUnits="userSpaceOnUse">
<stop stop-color="#00C200"/>
<stop offset="0.26" stop-color="#009CBD"/>
<stop offset="0.27" stop-color="#0099BB"/>
<stop offset="0.51" stop-color="#00679D"/>
<stop offset="0.72" stop-color="#004287"/>
<stop offset="0.89" stop-color="#002B7A"/>
<stop offset="1" stop-color="#002375"/>
</linearGradient>
<linearGradient id="paint22_linear_2938_5350" x1="70.5761" y1="30.1795" x2="-18.1175" y2="67.4358" gradientUnits="userSpaceOnUse">
<stop stop-color="#00C200"/>
<stop offset="0.26" stop-color="#009CBD"/>
<stop offset="0.27" stop-color="#0099BB"/>
<stop offset="0.51" stop-color="#00679D"/>
<stop offset="0.72" stop-color="#004287"/>
<stop offset="0.89" stop-color="#002B7A"/>
<stop offset="1" stop-color="#002375"/>
</linearGradient>
<linearGradient id="paint23_linear_2938_5350" x1="70.9264" y1="31.0216" x2="-17.7587" y2="68.2779" gradientUnits="userSpaceOnUse">
<stop stop-color="#00C200"/>
<stop offset="0.26" stop-color="#009CBD"/>
<stop offset="0.27" stop-color="#0099BB"/>
<stop offset="0.51" stop-color="#00679D"/>
<stop offset="0.72" stop-color="#004287"/>
<stop offset="0.89" stop-color="#002B7A"/>
<stop offset="1" stop-color="#002375"/>
</linearGradient>
<linearGradient id="paint24_linear_2938_5350" x1="71.7663" y1="33.0117" x2="-16.9272" y2="70.268" gradientUnits="userSpaceOnUse">
<stop stop-color="#00C200"/>
<stop offset="0.26" stop-color="#009CBD"/>
<stop offset="0.27" stop-color="#0099BB"/>
<stop offset="0.51" stop-color="#00679D"/>
<stop offset="0.72" stop-color="#004287"/>
<stop offset="0.89" stop-color="#002B7A"/>
<stop offset="1" stop-color="#002375"/>
</linearGradient>
<linearGradient id="paint25_linear_2938_5350" x1="72.7485" y1="34.3215" x2="-25.2483" y2="75.4859" gradientUnits="userSpaceOnUse">
<stop stop-color="#00C200"/>
<stop offset="0.34" stop-color="#009CBD"/>
<stop offset="1" stop-color="#002375"/>
</linearGradient>
<linearGradient id="paint26_linear_2938_5350" x1="70.804" y1="29.6891" x2="-27.193" y2="70.8533" gradientUnits="userSpaceOnUse">
<stop stop-color="#00C200"/>
<stop offset="0.34" stop-color="#009CBD"/>
<stop offset="1" stop-color="#002375"/>
</linearGradient>
<linearGradient id="paint27_linear_2938_5350" x1="72.1499" y1="34.0491" x2="-24.7832" y2="74.7615" gradientUnits="userSpaceOnUse">
<stop stop-color="#00C200"/>
<stop offset="0.31" stop-color="#009CBD"/>
<stop offset="1" stop-color="#002375"/>
</linearGradient>
<linearGradient id="paint28_linear_2938_5350" x1="65.5723" y1="18.4044" x2="-31.3608" y2="59.1169" gradientUnits="userSpaceOnUse">
<stop stop-color="#00C200"/>
<stop offset="0.31" stop-color="#009CBD"/>
<stop offset="1" stop-color="#002375"/>
</linearGradient>
<linearGradient id="paint29_linear_2938_5350" x1="70.7035" y1="30.6151" x2="-26.2296" y2="71.336" gradientUnits="userSpaceOnUse">
<stop stop-color="#00C200"/>
<stop offset="0.31" stop-color="#009CBD"/>
<stop offset="1" stop-color="#002375"/>
</linearGradient>
<linearGradient id="paint30_linear_2938_5350" x1="73.3444" y1="36.8966" x2="-23.5886" y2="77.6091" gradientUnits="userSpaceOnUse">
<stop stop-color="#00C200"/>
<stop offset="0.31" stop-color="#009CBD"/>
<stop offset="1" stop-color="#002375"/>
</linearGradient>
<clipPath id="clip0_2938_5350">
<rect width="190" height="52.0581" fill="white" transform="translate(0 0.0957031)"/>
</clipPath>
</defs>
</svg>
